<?xml version="1.0" standalone="no"?>
<!DOCTYPE svg PUBLIC "-//W3C//DTD SVG 20010904//EN"
 "http://www.w3.org/TR/2001/REC-SVG-20010904/DTD/svg10.dtd">
<svg version="1.0" xmlns="http://www.w3.org/2000/svg"
 width="32.000000pt" height="32.000000pt" viewBox="0 0 32.000000 32.000000"
 preserveAspectRatio="xMidYMid meet">
<metadata>
Created by potrace 1.10, written by Peter Selinger 2001-2011
</metadata>
<g transform="translate(0.000000,32.000000) scale(0.100000,-0.100000)"
fill="#000000" stroke="none">
<path d="M125 286 c-48 -21 -77 -60 -82 -109 -14 -118 112 -197 211 -132 l27
18 -45 46 -46 47 45 44 c25 24 44 49 42 54 -5 15 -70 46 -97 46 -14 -1 -38 -7
-55 -14z m100 -16 c49 -19 24 -35 -48 -32 l-67 4 0 -86 c0 -51 4 -86 10 -86 6
0 10 18 10 40 0 54 23 53 79 -4 43 -44 43 -44 21 -56 -14 -7 -42 -10 -69 -7
-63 7 -101 49 -101 113 0 56 12 79 53 104 35 22 72 25 112 10z m-25 -50 c12
-7 12 -12 -3 -28 -10 -11 -29 -22 -43 -25 -22 -4 -24 -1 -24 29 0 30 3 34 28
34 15 0 34 -4 42 -10z"/>
</g>
</svg>
